<svg version="1.1" id="Layer_1" xmlns="http://www.w3.org/2000/svg" xmlns:xlink="http://www.w3.org/1999/xlink" x="0px" y="0px"
	 width="100%" viewBox="0 0 200 200" enable-background="new 0 0 200 200" xml:space="preserve">
<path fill="#000000" opacity="1.000000" stroke="none" 
	d="
M115.000000,201.000000 
	C76.690323,201.000000 38.880650,201.000000 1.035486,201.000000 
	C1.035486,134.398697 1.035486,67.797363 1.035486,1.098018 
	C67.559509,1.098018 134.119202,1.098018 200.839447,1.098018 
	C200.839447,67.666359 200.839447,134.333145 200.839447,201.000000 
	C172.464310,201.000000 143.982162,201.000000 115.000000,201.000000 
M71.396202,26.815662 
	C62.661045,31.406559 54.690956,36.791245 48.537487,44.841133 
	C31.167376,67.564499 32.858852,99.098358 53.221092,119.477425 
	C66.174232,132.441269 82.214294,138.706543 101.025276,138.132477 
	C121.455482,137.509003 138.129883,129.914154 150.602600,113.801605 
	C167.847427,91.524345 166.041580,60.633118 146.290649,39.898525 
	C127.818642,20.506557 97.157379,15.207586 71.396202,26.815662 
z"/>
<path fill="#070C0A" opacity="1.000000" stroke="none" 
	d="
M71.732452,26.641148 
	C97.157379,15.207586 127.818642,20.506557 146.290649,39.898525 
	C166.041580,60.633118 167.847427,91.524345 150.602600,113.801605 
	C138.129883,129.914154 121.455482,137.509003 101.025276,138.132477 
	C82.214294,138.706543 66.174232,132.441269 53.221092,119.477425 
	C32.858852,99.098358 31.167376,67.564499 48.537487,44.841133 
	C54.690956,36.791245 62.661045,31.406559 71.732452,26.641148 
M129.800919,97.801033 
	C129.800919,97.801033 129.991272,97.977638 129.372955,97.849205 
	C128.924255,97.538971 128.475540,97.228737 128.092636,96.505913 
	C128.092636,96.505913 128.121765,96.089111 128.362045,95.926949 
	C128.213745,95.914169 128.065445,95.901390 127.399017,95.400078 
	C125.724586,91.589546 122.785599,92.927147 120.042656,93.631889 
	C118.529465,94.020653 117.053246,94.553299 115.012566,94.383080 
	C113.995499,94.215347 112.978424,94.047615 111.568741,93.485016 
	C111.413849,93.438446 111.258659,93.354706 111.104156,93.355965 
	C110.955658,93.357170 110.807869,93.446381 110.659767,93.496933 
	C111.797615,94.786034 112.719025,96.463737 114.135452,97.252678 
	C115.495529,98.010239 117.368568,97.846840 118.347206,98.472107 
	C115.415825,99.592239 112.484444,100.712372 108.883835,101.909477 
	C107.307549,102.791946 105.731255,103.674416 104.042374,103.880531 
	C103.623970,103.463997 103.205559,103.047462 102.787155,102.630928 
	C102.521973,103.705200 102.256798,104.779480 101.465210,106.404427 
	C99.081818,107.382393 96.698425,108.360359 94.205780,108.564995 
	C94.137215,106.708267 94.068649,104.851547 94.469040,102.607368 
	C94.639938,101.738419 94.810844,100.869461 94.981750,100.000511 
	C94.781235,99.918823 94.580727,99.837143 94.380211,99.755455 
	C93.919243,100.503258 93.458275,101.251068 93.000000,102.000000 
	C93.000000,102.000000 92.999924,101.997032 92.317078,101.922173 
	C90.538399,102.547501 88.759727,103.172829 86.150963,103.872925 
	C80.704071,105.117180 75.337151,105.898232 70.873230,100.480026 
	C68.649696,97.522621 67.227379,94.593193 68.414955,90.543846 
	C69.027817,88.454132 67.895798,85.852692 67.552177,83.482468 
	C65.727982,85.712982 59.024822,83.179115 62.004429,89.880447 
	C61.683659,90.923737 61.362888,91.967026 60.814117,93.611160 
	C60.504478,94.407288 60.194843,95.203407 59.353012,96.090523 
	C59.456791,96.726959 59.560574,97.363388 59.696266,98.669304 
	C59.626823,99.110229 59.557381,99.551155 58.832027,100.177505 
	C58.556881,103.027046 58.001083,105.882896 58.065048,108.724808 
	C58.197903,114.627228 59.472240,115.733055 65.744476,116.633095 
	C66.152191,116.750549 66.559906,116.868004 66.979790,117.013657 
	C66.979790,117.013657 67.007141,117.027618 66.717346,117.729874 
	C68.653481,119.860832 70.220474,122.615631 72.588432,124.016808 
	C84.000809,130.769714 100.220200,128.252075 110.569687,118.139084 
	C116.768631,113.304382 122.375732,107.384270 131.543900,107.376389 
	C132.727127,106.975082 133.910339,106.573776 135.890915,106.125381 
	C136.249817,107.512337 136.303757,109.100960 137.051102,110.231049 
	C137.840759,111.425117 139.291138,112.182251 140.452881,113.130257 
	C140.870255,112.867538 141.287628,112.604820 141.705002,112.342110 
	C138.986710,108.060936 136.268417,103.779770 133.199554,98.957863 
	C132.471085,98.540169 131.742630,98.122475 130.981644,97.272034 
	C130.838593,97.041855 130.695541,96.811684 130.552490,96.581497 
	C130.339020,96.909790 130.125549,97.238075 129.800919,97.801033 
M97.797249,64.127464 
	C99.749588,64.127464 101.701927,64.127464 103.654266,64.127464 
	C103.684959,63.693733 103.715652,63.259998 103.746346,62.826267 
	C101.498062,62.637222 99.249786,62.448177 96.370178,62.211998 
	C95.579018,62.471260 94.787849,62.730518 93.129646,62.950832 
	C88.934898,63.402164 84.740150,63.853493 80.545403,64.304825 
	C82.361465,65.303749 84.304253,65.873436 86.252556,65.892929 
	C88.795883,65.918381 91.343575,65.508141 94.241562,65.846764 
	C93.469696,67.119469 92.954590,68.715790 91.861229,69.583305 
	C90.482117,70.677536 88.631149,71.177078 86.983742,71.933167 
	C87.176666,72.371758 87.369591,72.810349 87.562508,73.248940 
	C90.436516,72.149284 93.418373,71.264198 96.153954,69.889145 
	C98.847656,68.535156 99.515335,66.430107 97.797249,64.127464 
M113.102562,43.251240 
	C113.029907,41.710789 112.957260,40.170338 112.859558,38.098721 
	C109.479942,39.657623 106.701157,40.939384 103.761230,41.440159 
	C103.224609,39.088486 102.687988,36.736816 102.134949,34.313190 
	C96.753120,41.015747 91.585396,47.451664 85.925674,54.294743 
	C83.034988,56.447121 80.144302,58.599503 76.623932,61.220737 
	C83.617775,62.778587 88.775871,60.656799 93.857277,56.003639 
	C95.215706,55.107162 96.574135,54.210686 98.725418,53.137669 
	C100.797653,52.805534 102.869881,52.473400 105.272362,52.804386 
	C110.637840,55.732151 116.003319,58.659912 122.236481,62.061138 
	C120.226479,58.097813 118.319908,54.308186 116.384338,50.533436 
	C115.261795,48.344257 114.092636,46.178997 113.102562,43.251240 
M117.705025,79.077492 
	C118.124092,77.487282 118.389687,75.836342 118.990479,74.318039 
	C120.936203,69.400818 119.291267,65.007568 112.741859,61.307270 
	C119.293282,69.545616 112.844109,76.248840 112.805733,84.894409 
	C114.942955,82.505058 116.162270,81.141899 117.705025,79.077492 
M104.582611,95.704231 
	C103.082932,96.090225 101.494568,96.287529 100.117638,96.934685 
	C99.322250,97.308517 98.867996,98.408150 98.260208,99.181114 
	C99.312317,99.540939 100.793083,100.516518 101.333038,100.140640 
	C102.734276,99.165176 103.721649,97.595215 104.582611,95.704231 
M107.458366,97.574791 
	C107.331154,96.744354 107.203934,95.913918 107.076721,95.083481 
	C106.709984,95.171532 106.343254,95.259583 105.976517,95.347633 
	C106.308868,95.998070 106.641212,96.648499 107.458366,97.574791 
M98.563629,105.512772 
	C98.563629,105.512772 98.480324,105.557106 98.563629,105.512772 
M112.484520,91.567909 
	C112.484520,91.567909 112.435493,91.479218 112.484520,91.567909 
M85.624168,73.513550 
	C85.624168,73.513550 85.557350,73.451393 85.624168,73.513550 
z"/>
<path fill="#0A0E0D" opacity="1.000000" stroke="none" 
	d="
M94.000084,102.994820 
	C94.068649,104.851547 94.137215,106.708267 94.035400,109.152374 
	C92.333862,110.294594 90.802704,110.849434 89.271538,111.404266 
	C89.374344,111.815720 89.477150,112.227180 89.579956,112.638634 
	C93.251244,111.845016 96.902420,110.928070 100.604645,110.324020 
	C101.917717,110.109787 103.355072,110.657249 104.388680,110.895088 
	C97.054001,116.064430 89.555794,119.562729 80.406151,117.778885 
	C80.415260,118.290062 80.424377,118.801239 80.433487,119.312416 
	C85.182281,119.844856 89.931084,120.377296 95.448631,120.995934 
	C92.380028,122.181152 90.105484,123.059662 87.528275,124.004593 
	C83.506706,123.708435 79.787804,123.345856 76.027374,122.774750 
	C75.671562,122.414627 75.357269,122.263023 74.732048,121.952477 
	C71.949791,120.204895 69.478462,118.616257 67.007141,117.027618 
	C67.007141,117.027618 66.979790,117.013657 66.891113,116.651520 
	C66.363823,116.195229 65.925201,116.101067 65.486588,116.006912 
	C59.472240,115.733055 58.197903,114.627228 58.065048,108.724808 
	C58.001083,105.882896 58.556881,103.027046 59.225098,100.520508 
	C59.993401,105.497780 60.255196,110.174599 63.185604,113.311234 
	C63.006466,106.626884 62.824642,99.842453 62.832680,92.830582 
	C63.260452,91.294670 63.498356,89.986206 63.736259,88.677734 
	C63.197460,88.865700 62.658665,89.053658 62.119865,89.241623 
	C59.024822,83.179115 65.727982,85.712982 67.552177,83.482468 
	C67.895798,85.852692 69.027817,88.454132 68.414955,90.543846 
	C67.227379,94.593193 68.649696,97.522621 70.567032,100.847351 
	C69.656311,103.770119 70.901840,105.681602 74.454132,105.828247 
	C78.955276,106.014061 83.492760,105.319565 88.319176,104.956253 
	C90.082497,103.937553 91.541214,102.967293 92.999924,101.997040 
	C92.999924,101.997032 93.000000,102.000000 93.210861,102.115746 
	C93.686539,102.431351 93.879318,102.685799 94.000084,102.994820 
z"/>
<path fill="#F2F5F5" opacity="1.000000" stroke="none" 
	d="
M135.093567,106.172462 
	C133.910339,106.573776 132.727127,106.975082 131.181808,106.817993 
	C129.192123,105.909363 127.315002,104.865715 125.985588,105.344101 
	C122.546730,106.581581 119.349442,108.490379 115.870369,109.881897 
	C114.449898,109.077644 113.214745,108.522629 112.142067,107.796768 
	C111.387375,105.694794 110.470215,103.763657 109.553062,101.832504 
	C112.484444,100.712372 115.415825,99.592239 119.114899,98.298035 
	C122.597343,97.722153 125.312080,97.320328 128.026825,96.918503 
	C128.475540,97.228737 128.924255,97.538971 129.728455,98.199173 
	C130.087418,98.742119 130.090851,98.935081 130.093277,99.415070 
	C130.395248,99.818840 130.698227,99.935585 131.002090,100.024200 
	C131.002991,99.996078 130.948685,100.010887 130.964783,100.346893 
	C131.321259,100.973953 131.661636,101.265007 132.114624,101.713409 
	C132.442764,102.020958 132.680038,102.118073 133.001343,102.496048 
	C133.740280,103.944153 134.416931,105.058311 135.093567,106.172462 
z"/>
<path fill="#4C5353" opacity="1.000000" stroke="none" 
	d="
M66.862244,117.378746 
	C69.478462,118.616257 71.949791,120.204895 74.855164,122.147530 
	C75.501358,122.739372 75.761246,122.899956 76.068901,122.983276 
	C79.787804,123.345856 83.506706,123.708435 87.722015,124.346771 
	C96.689537,124.599281 103.690536,121.260223 109.323090,115.535843 
	C109.438820,116.778091 109.714180,117.679169 109.989548,118.580246 
	C100.220200,128.252075 84.000809,130.769714 72.588432,124.016808 
	C70.220474,122.615631 68.653481,119.860832 66.862244,117.378746 
z"/>
<path fill="#C8CFD0" opacity="1.000000" stroke="none" 
	d="
M97.932556,53.314205 
	C96.574135,54.210686 95.215706,55.107162 93.258942,55.865223 
	C92.500854,54.549725 92.341095,53.372643 92.458534,52.105434 
	C93.107719,51.397606 93.479706,50.779903 93.851685,50.162201 
	C93.644142,50.048996 93.436600,49.935791 93.229050,49.822590 
	C92.765373,50.485821 92.301689,51.149055 91.467201,51.897156 
	C89.536812,52.617207 87.977242,53.252396 86.417664,53.887581 
	C91.585396,47.451664 96.753120,41.015747 102.134949,34.313190 
	C102.687988,36.736816 103.224609,39.088486 103.632004,42.074368 
	C101.646042,46.243786 99.789299,49.778996 97.932556,53.314205 
M99.469109,41.722321 
	C99.724861,41.991932 99.980614,42.261547 100.236374,42.531158 
	C100.347252,42.424667 100.560883,42.232147 100.554161,42.224129 
	C100.316338,41.940075 100.057838,41.673321 99.469109,41.722321 
z"/>
<path fill="#ECF0F0" opacity="1.000000" stroke="none" 
	d="
M112.944450,44.002972 
	C114.092636,46.178997 115.261795,48.344257 116.384338,50.533436 
	C118.319908,54.308186 120.226479,58.097813 122.236481,62.061138 
	C116.003319,58.659912 110.637840,55.732151 105.183487,52.101807 
	C105.720879,50.118717 106.890335,48.832771 106.877579,47.558662 
	C106.827446,42.550804 109.547211,42.824665 112.944450,44.002972 
z"/>
<path fill="#D6DADA" opacity="1.000000" stroke="none" 
	d="
M109.218445,101.870995 
	C110.470215,103.763657 111.387375,105.694794 111.726761,107.794304 
	C108.999878,108.252609 105.912422,106.917053 105.635406,110.952492 
	C105.134758,110.907883 104.935219,110.882431 104.735687,110.856979 
	C103.355072,110.657249 101.917717,110.109787 100.604645,110.324020 
	C96.902420,110.928070 93.251244,111.845016 89.579956,112.638634 
	C89.477150,112.227180 89.374344,111.815720 89.271538,111.404266 
	C90.802704,110.849434 92.333862,110.294594 94.090034,109.539040 
	C96.698425,108.360359 99.081818,107.382393 101.986534,106.099167 
	C103.056892,105.381561 103.605927,104.969223 104.154961,104.556885 
	C105.731255,103.674416 107.307549,102.791946 109.218445,101.870995 
z"/>
<path fill="#E0E6E7" opacity="1.000000" stroke="none" 
	d="
M113.023506,43.627106 
	C109.547211,42.824665 106.827446,42.550804 106.877579,47.558662 
	C106.890335,48.832771 105.720879,50.118717 105.018372,51.770245 
	C102.869881,52.473400 100.797653,52.805534 98.328987,53.225937 
	C99.789299,49.778996 101.646042,46.243786 103.712570,42.464859 
	C106.701157,40.939384 109.479942,39.657623 112.859558,38.098721 
	C112.957260,40.170338 113.029907,41.710789 113.023506,43.627106 
z"/>
<path fill="#DCE0DF" opacity="1.000000" stroke="none" 
	d="
M117.543304,79.428116 
	C116.162270,81.141899 114.942955,82.505058 112.805733,84.894409 
	C112.844109,76.248840 119.293282,69.545616 112.741859,61.307270 
	C119.291267,65.007568 120.936203,69.400818 118.990479,74.318039 
	C118.389687,75.836342 118.124092,77.487282 117.543304,79.428116 
z"/>
<path fill="#ADB9B7" opacity="1.000000" stroke="none" 
	d="
M92.181335,52.195560 
	C92.341095,53.372643 92.500854,54.549725 92.954758,55.943504 
	C88.775871,60.656799 83.617775,62.778587 76.623932,61.220737 
	C80.144302,58.599503 83.034988,56.447121 86.171669,54.091164 
	C87.977242,53.252396 89.536812,52.617207 91.552750,51.993225 
	C92.009109,52.004433 92.181335,52.195560 92.181335,52.195560 
z"/>
<path fill="#B5BBBB" opacity="1.000000" stroke="none" 
	d="
M110.279617,118.359665 
	C109.714180,117.679169 109.438820,116.778091 109.301514,115.305351 
	C109.439560,114.733688 109.314651,114.288673 109.643173,114.224518 
	C111.999702,112.817284 114.027702,111.474205 116.055695,110.131119 
	C119.349442,108.490379 122.546730,106.581581 125.985588,105.344101 
	C127.315002,104.865715 129.192123,105.909363 130.910156,106.629082 
	C122.375732,107.384270 116.768631,113.304382 110.279617,118.359665 
z"/>
<path fill="#0F1313" opacity="1.000000" stroke="none" 
	d="
M128.059723,96.712204 
	C125.312080,97.320328 122.597343,97.722153 119.449402,98.106049 
	C117.368568,97.846840 115.495529,98.010239 114.135452,97.252678 
	C112.719025,96.463737 111.797615,94.786034 110.659767,93.496933 
	C110.807869,93.446381 110.955658,93.357170 111.104156,93.355965 
	C111.258659,93.354706 111.413849,93.438446 111.910065,94.079582 
	C113.354385,94.789795 114.457367,94.905434 115.560356,95.021080 
	C117.053246,94.553299 118.529465,94.020653 120.042656,93.631889 
	C122.785599,92.927147 125.724586,91.589546 127.706062,95.697708 
	C128.013107,95.995346 128.121765,96.089111 128.121765,96.089111 
	C128.121765,96.089111 128.092636,96.505913 128.059723,96.712204 
z"/>
<path fill="#D0D4D2" opacity="1.000000" stroke="none" 
	d="
M135.492249,106.148926 
	C134.416931,105.058311 133.740280,103.944153 133.025574,102.136917 
	C132.988098,100.966331 132.988708,100.488823 133.130386,99.884094 
	C133.271469,99.756874 133.550140,99.498596 133.550140,99.498596 
	C136.268417,103.779770 138.986710,108.060936 141.705002,112.342110 
	C141.287628,112.604820 140.870255,112.867538 140.452881,113.130257 
	C139.291138,112.182251 137.840759,111.425117 137.051102,110.231049 
	C136.303757,109.100960 136.249817,107.512337 135.492249,106.148926 
z"/>
<path fill="#B4B9B8" opacity="1.000000" stroke="none" 
	d="
M93.996689,62.989777 
	C94.787849,62.730518 95.579018,62.471260 96.687485,62.538261 
	C97.011848,63.268055 97.018898,63.671577 97.025948,64.075104 
	C99.515335,66.430107 98.847656,68.535156 96.153954,69.889145 
	C93.418373,71.264198 90.436516,72.149284 87.562508,73.248940 
	C87.369591,72.810349 87.176666,72.371758 86.983742,71.933167 
	C88.631149,71.177078 90.482117,70.677536 91.861229,69.583305 
	C92.954590,68.715790 93.469696,67.119469 94.097382,65.184227 
	C93.967697,64.011055 93.982193,63.500416 93.996689,62.989777 
z"/>
<path fill="#5B605F" opacity="1.000000" stroke="none" 
	d="
M62.642818,93.058029 
	C62.824642,99.842453 63.006466,106.626884 63.185604,113.311234 
	C60.255196,110.174599 59.993401,105.497780 59.553051,100.427795 
	C59.557381,99.551155 59.626823,99.110229 59.789871,98.012329 
	C59.884048,96.903412 59.884628,96.451477 59.885208,95.999535 
	C60.194843,95.203407 60.504478,94.407288 61.328159,93.324844 
	C62.109070,93.045029 62.375942,93.051529 62.642818,93.058029 
z"/>
<path fill="#3D4140" opacity="1.000000" stroke="none" 
	d="
M88.014572,105.004700 
	C83.492760,105.319565 78.955276,106.014061 74.454132,105.828247 
	C70.901840,105.681602 69.656311,103.770119 70.584885,101.228149 
	C75.337151,105.898232 80.704071,105.117180 86.793915,103.988174 
	C87.629440,104.403854 87.822006,104.704285 88.014572,105.004700 
z"/>
<path fill="#0F1313" opacity="1.000000" stroke="none" 
	d="
M104.728409,95.983376 
	C103.721649,97.595215 102.734276,99.165176 101.333038,100.140640 
	C100.793083,100.516518 99.312317,99.540939 98.260208,99.181114 
	C98.867996,98.408150 99.322250,97.308517 100.117638,96.934685 
	C101.494568,96.287529 103.082932,96.090225 104.728409,95.983376 
z"/>
<path fill="#B5BBBB" opacity="1.000000" stroke="none" 
	d="
M93.563171,62.970306 
	C93.982193,63.500416 93.967697,64.011055 93.921295,64.903526 
	C91.343575,65.508141 88.795883,65.918381 86.252556,65.892929 
	C84.304253,65.873436 82.361465,65.303749 80.545403,64.304825 
	C84.740150,63.853493 88.934898,63.402164 93.563171,62.970306 
z"/>
<path fill="#B5BBBB" opacity="1.000000" stroke="none" 
	d="
M97.411598,64.101288 
	C97.018898,63.671577 97.011848,63.268055 97.003151,62.561829 
	C99.249786,62.448177 101.498062,62.637222 103.746346,62.826267 
	C103.715652,63.259998 103.684959,63.693733 103.654266,64.127464 
	C101.701927,64.127464 99.749588,64.127464 97.411598,64.101288 
z"/>
<path fill="#0F1313" opacity="1.000000" stroke="none" 
	d="
M88.319176,104.956261 
	C87.822006,104.704285 87.629440,104.403854 87.208961,103.950790 
	C88.759727,103.172829 90.538399,102.547501 92.658501,101.959610 
	C91.541214,102.967293 90.082497,103.937553 88.319176,104.956261 
z"/>
<path fill="#4F5452" opacity="1.000000" stroke="none" 
	d="
M62.832680,92.830582 
	C62.375942,93.051529 62.109070,93.045029 61.442158,93.024429 
	C61.362888,91.967026 61.683659,90.923737 62.062149,89.561035 
	C62.658665,89.053658 63.197460,88.865700 63.736259,88.677734 
	C63.498356,89.986206 63.260452,91.294670 62.832680,92.830582 
z"/>
<path fill="#0F1313" opacity="1.000000" stroke="none" 
	d="
M107.215965,97.436859 
	C106.641212,96.648499 106.308868,95.998070 105.976517,95.347633 
	C106.343254,95.259583 106.709984,95.171532 107.076721,95.083481 
	C107.203934,95.913918 107.331154,96.744354 107.215965,97.436859 
z"/>
<path fill="#0F1313" opacity="1.000000" stroke="none" 
	d="
M104.098663,104.218704 
	C103.605927,104.969223 103.056892,105.381561 102.249741,105.823830 
	C102.256798,104.779480 102.521973,103.705200 102.787155,102.630928 
	C103.205559,103.047462 103.623970,103.463997 104.098663,104.218704 
z"/>
<path fill="#D0D4D2" opacity="1.000000" stroke="none" 
	d="
M130.094269,99.128044 
	C130.090851,98.935081 130.087418,98.742119 130.037628,98.263397 
	C129.991272,97.977638 129.800919,97.801033 130.126373,97.763229 
	C130.639282,97.718544 130.826721,97.711662 131.014160,97.704781 
	C131.742630,98.122475 132.471085,98.540169 133.374847,99.228226 
	C133.550140,99.498596 133.271469,99.756874 132.834320,99.904861 
	C132.199860,100.068802 132.002533,100.084747 131.592117,100.068398 
	C131.379013,100.036095 130.948685,100.010887 130.948685,100.010887 
	C130.948685,100.010887 131.002991,99.996078 130.937286,99.797287 
	C130.699936,99.297142 130.440842,99.140327 130.094269,99.128044 
z"/>
<path fill="#0F1313" opacity="1.000000" stroke="none" 
	d="
M94.234558,102.801094 
	C93.879318,102.685799 93.686539,102.431351 93.209518,102.115181 
	C93.458275,101.251068 93.919243,100.503258 94.380211,99.755455 
	C94.580727,99.837143 94.781235,99.918823 94.981750,100.000511 
	C94.810844,100.869461 94.639938,101.738419 94.234558,102.801094 
z"/>
<path fill="#0A0E0D" opacity="1.000000" stroke="none" 
	d="
M59.619110,96.045029 
	C59.884628,96.451477 59.884048,96.903412 59.773914,97.677589 
	C59.560574,97.363388 59.456791,96.726959 59.619110,96.045029 
z"/>
<path fill="#8A8F8E" opacity="1.000000" stroke="none" 
	d="
M115.286461,94.702080 
	C114.457367,94.905434 113.354385,94.789795 112.106377,94.277016 
	C112.978424,94.047615 113.995499,94.215347 115.286461,94.702080 
z"/>
<path fill="#0F1313" opacity="1.000000" stroke="none" 
	d="
M130.997894,97.488403 
	C130.826721,97.711662 130.639282,97.718544 130.181946,97.645889 
	C130.125549,97.238075 130.339020,96.909790 130.552490,96.581497 
	C130.695541,96.811684 130.838593,97.041855 130.997894,97.488403 
z"/>
<path fill="#0F1313" opacity="1.000000" stroke="none" 
	d="
M127.965126,95.941978 
	C128.065445,95.901390 128.213745,95.914169 128.241913,96.008026 
	C128.121765,96.089111 128.013107,95.995346 127.965126,95.941978 
z"/>
<path fill="#0A0E0D" opacity="1.000000" stroke="none" 
	d="
M98.521973,105.534943 
	C98.480324,105.557106 98.563629,105.512772 98.521973,105.534943 
z"/>
<path fill="#0F1313" opacity="1.000000" stroke="none" 
	d="
M112.460007,91.523560 
	C112.435493,91.479218 112.484520,91.567909 112.460007,91.523560 
z"/>
<path fill="#B4B9B8" opacity="1.000000" stroke="none" 
	d="
M85.590759,73.482468 
	C85.557350,73.451393 85.624168,73.513550 85.590759,73.482468 
z"/>
<path fill="#4C5353" opacity="1.000000" stroke="none" 
	d="
M65.615532,116.320007 
	C65.925201,116.101067 66.363823,116.195229 66.885025,116.637421 
	C66.559906,116.868004 66.152191,116.750549 65.615532,116.320007 
z"/>
<path fill="#E7ECEC" opacity="1.000000" stroke="none" 
	d="
M109.314651,114.288673 
	C109.314651,114.288673 109.439560,114.733688 109.461136,114.964180 
	C103.690536,121.260223 96.689537,124.599281 88.024681,124.280350 
	C90.105484,123.059662 92.380028,122.181152 95.448631,120.995934 
	C89.931084,120.377296 85.182281,119.844856 80.433487,119.312416 
	C80.424377,118.801239 80.415260,118.290062 80.406151,117.778885 
	C89.555794,119.562729 97.054001,116.064430 104.388680,110.895088 
	C104.935219,110.882431 105.134758,110.907883 105.980698,111.020683 
	C107.522957,112.168251 108.418808,113.228462 109.314651,114.288673 
z"/>
<path fill="#4B5251" opacity="1.000000" stroke="none" 
	d="
M76.027374,122.774750 
	C75.761246,122.899956 75.501358,122.739372 75.166107,122.306473 
	C75.357269,122.263023 75.671562,122.414627 76.027374,122.774750 
z"/>
<path fill="#E9EEEE" opacity="1.000000" stroke="none" 
	d="
M109.643173,114.224518 
	C108.418808,113.228462 107.522957,112.168251 106.281815,111.039848 
	C105.912422,106.917053 108.999878,108.252609 111.564301,107.965149 
	C113.214745,108.522629 114.449898,109.077644 115.870369,109.881897 
	C114.027702,111.474205 111.999702,112.817284 109.643173,114.224518 
z"/>
<path fill="#C8CFD0" opacity="1.000000" stroke="none" 
	d="
M131.805222,100.100700 
	C132.002533,100.084747 132.199860,100.068802 132.693237,100.032089 
	C132.988708,100.488823 132.988098,100.966331 132.963257,101.802963 
	C132.680038,102.118073 132.442764,102.020958 132.091675,101.345840 
	C131.905807,100.580841 131.855515,100.340775 131.805222,100.100700 
z"/>
<path fill="#8A8F8E" opacity="1.000000" stroke="none" 
	d="
M131.592117,100.068398 
	C131.855515,100.340775 131.905807,100.580841 131.979065,101.188484 
	C131.661636,101.265007 131.321259,100.973953 130.964783,100.346893 
	C130.948685,100.010887 131.379013,100.036095 131.592117,100.068398 
z"/>
<path fill="#8A8F8E" opacity="1.000000" stroke="none" 
	d="
M130.093277,99.415070 
	C130.440842,99.140327 130.699936,99.297142 130.936371,99.825409 
	C130.698227,99.935585 130.395248,99.818840 130.093277,99.415070 
z"/>
<path fill="#ADB9B7" opacity="1.000000" stroke="none" 
	d="
M91.923561,51.908360 
	C92.301689,51.149055 92.765373,50.485821 93.229050,49.822590 
	C93.436600,49.935791 93.644142,50.048996 93.851685,50.162201 
	C93.479706,50.779903 93.107719,51.397606 92.458534,52.105434 
	C92.181335,52.195560 92.009109,52.004433 91.923561,51.908360 
z"/>
<path fill="#E0E6E7" opacity="1.000000" stroke="none" 
	d="
M99.635681,41.563232 
	C100.057838,41.673321 100.316338,41.940075 100.554161,42.224129 
	C100.560883,42.232147 100.347252,42.424667 100.236374,42.531158 
	C99.980614,42.261547 99.724861,41.991932 99.635681,41.563232 
z"/>
</svg>